<?xml version="1.0" encoding="UTF-8"?>
<svg width="54px" height="42px" viewBox="0 0 54 42" version="1.1" xmlns="http://www.w3.org/2000/svg" xmlns:xlink="http://www.w3.org/1999/xlink">
    <!-- Generator: Sketch 52.3 (67297) - http://www.bohemiancoding.com/sketch -->
    <title>Group</title>
    <desc>Created with Sketch.</desc>
    <g id="Page-1" stroke="none" stroke-width="1" fill="none" fill-rule="evenodd">
        <g id="turk-medya-revize-logo" transform="translate(-409.000000, -277.000000)" fill="#FFFFFF">
            <g id="Group" transform="translate(409.000000, 277.000000)">
                <polygon id="Fill-4" points="51.548 32 50.709 32 49.871 32 49.032 32 48.194 32 47.355 32 46.516 32 45.677 32 44.839 32 44 32 44 32.838 44 33.677 44 34.516 44 35.354 44 36.193 44 37.032 44 37.87 44 38.709 44 39.547 44 40.386 44 41.225 44.839 41.225 45.677 41.225 46.516 41.225 47.355 41.225 48.194 41.225 49.032 41.225 49.871 41.225 50.709 41.225 51.548 41.225 52.386 41.225 53.225 41.225 53.225 40.386 53.225 39.547 53.225 38.709 53.225 37.87 53.225 37.032 53.225 36.193 53.225 35.354 53.225 34.516 53.225 33.677 53.225 32.838 53.225 32 52.386 32"></polygon>
                <polygon id="Fill-6" points="35.826 16 35.406 16 34.565 16 33.724 16 32.884 16 32.043 16 31.203 16 30.362 16 29.522 16 28.681 16 27.841 16 27 16 27 41.216 27.841 41.216 28.681 41.216 29.522 41.216 30.362 41.216 31.203 41.216 32.043 41.216 32.884 41.216 33.724 41.216 34.565 41.216 35.406 41.216 36.246 41.216 36.246 25.246 52.829 25.246 52.829 24.405 52.829 23.565 52.829 22.724 52.829 21.884 52.829 21.043 52.829 20.203 52.829 19.362 52.829 18.521 52.829 17.681 52.829 16.84 52.829 16 36.246 16"></polygon>
                <polygon id="Fill-8" points="0 -2.84217094e-14 0 0.84 0 1.681 0 2.521 0 3.362 0 4.203 0 5.043 0 5.884 0 6.724 0 7.565 0 8.405 0 9.246 10.927 9.246 10.927 41.186 11.768 41.186 12.608 41.186 13.448 41.186 14.289 41.186 15.129 41.186 15.97 41.186 16.811 41.186 17.651 41.186 18.492 41.186 19.332 41.186 20.173 41.186 20.173 9.246 53.375 9.246 53.375 8.405 53.375 7.565 53.375 6.724 53.375 5.884 53.375 5.043 53.375 4.203 53.375 3.362 53.375 2.521 53.375 1.681 53.375 0.84 53.375 -2.84217094e-14"></polygon>
            </g>
        </g>
    </g>
</svg>